<?xml version="1.0" encoding="utf-8"?>
<!-- Generator: Adobe Illustrator 16.0.4, SVG Export Plug-In . SVG Version: 6.00 Build 0)  -->
<!DOCTYPE svg PUBLIC "-//W3C//DTD SVG 1.1//EN" "http://www.w3.org/Graphics/SVG/1.1/DTD/svg11.dtd">
<svg version="1.1" id="Layer_1" xmlns="http://www.w3.org/2000/svg" xmlns:xlink="http://www.w3.org/1999/xlink" x="0px" y="0px"
	 width="792px" height="612px" viewBox="0 0 792 612" enable-background="new 0 0 792 612" xml:space="preserve">
<g>
	<path d="M105,354.334c5.333-6,17.333-14.667,23.333-20.667c35.333-35.333,60.667-83.333,76-130c9.333-28,32-93.333,10-121.333
		c-17.333-23.333-33.333,4-32.667,22c0,34,24.667,69.333,41.333,96.667c9.333,16,26.667,36,10.667,53.333
		c-22,24-71.333,20.667-94.667,0.667c-23.333-20.667-34-57.333-32.667-87.333c13.333-2,22,5.333,26,22
		c16,28.667,31.333,56.667,46,86c19.333,38.667,36,82,71.333,108.667c5.333-4,10.667-8,16-11.334
		c12-32.666,18.667-66,19.333-100.667c0.667-16.667,10.667-125.333-22-128.667c-26,80-8,156.667,2,237.333
		c-20.667-40-19.333-100.667-22-144c-2-34.667-6.667-73.333,1.333-107.333C249,141,243.667,155,247.667,167
		c17.333,1.333,54-28,64-1.333C319,185,293,221,283,235c-5.333,7.333-24.667,38-38,34c9.333-17.333,32-8.667,42,1.333
		c21.333,22,17.333,56,34,79.333c12.667-32.667,12.667-71.333,14.667-105.333C338.333,197.667,349,131,328.333,87.667
		c-18,34.667-25.333,73.333-33.333,112c-6.667,32-13.333,64-12.667,96.667c16,8.667,32,6.667,48-6.667
		C364.333,274.333,399,259,433,243c26.667-11.333,53.333-23.333,78.667-36c17.333-3.333,26-12,26-27.333
		c-112-14-230,27.333-334,65.333C163,259.667,122.333,276.333,83,295c-20,2.667-30.667,12.667-32.667,29.334
		c134-8,266.667-55.334,395.333-91.334c94-26,187.333-53.333,282-76"/>
	<g>
		<path d="M106.768,356.102c7.787-8.476,17.62-14.813,25.674-23.041c9.575-9.78,18.2-20.472,26.168-31.588
			c16.306-22.748,29.21-47.833,39.634-73.762c8.014-19.936,14.743-40.715,20.243-61.488c5.422-20.477,9.764-42.446,6.598-63.641
			c-2.068-13.845-15.687-41.296-33.166-28.626c-7.365,5.338-11.072,15.314-12.363,23.974c-1.746,11.716,1.121,24.319,4.681,35.422
			c8.266,25.782,24.155,48.396,38.06,71.338c6.457,10.654,15.547,21.789,15.367,34.876c-0.168,12.25-13.285,20.698-23.427,24.669
			c-23.237,9.097-55.709,5.041-74.521-11.954c-22.77-20.571-32.022-54.821-30.882-84.615c-0.833,0.833-1.667,1.667-2.5,2.5
			c8.515-1.108,15.105,1.74,19.527,9.208c2.474,4.177,2.93,9.073,5.254,13.239c3.429,6.146,6.844,12.302,10.243,18.465
			c12.736,23.095,25.213,46.352,36.878,70.009c18.734,37.994,35.507,78.885,70.168,105.404c0.629,0.482,1.893,0.474,2.523,0
			c2.893-2.168,5.792-4.327,8.728-6.437c2.416-1.736,5.688-3.197,7.778-5.288c1.758-1.758,2.336-5.812,3.133-8.113
			c1.411-4.077,2.709-8.192,3.959-12.321c4.426-14.614,7.682-29.568,9.904-44.672c2.573-17.486,2.978-35.16,3.96-52.783
			c0.874-15.68,1.336-31.392,0.882-47.094c-0.458-15.827-1.569-32.269-6.485-47.423c-3.116-9.604-8.808-19.857-19.787-21.194
			c-1.118-0.136-2.101,0.87-2.411,1.835c-12.179,37.962-15.011,77.616-12.703,117.241c2.358,40.505,9.596,80.542,14.614,120.756
			c1.553-0.421,3.106-0.841,4.659-1.262c-18.055-35.519-18.748-78.112-20.421-117.067c-0.88-20.475-2.369-40.894-3.558-61.35
			c-1.376-23.674-1.75-47.738,3.565-70.99c-1.607,0-3.214,0-4.821,0c4.449,11.999-0.319,25.097,3.333,37.333
			c0.332,1.111,1.273,1.777,2.411,1.835c6.842,0.353,13.633-2.376,19.929-4.712c7.999-2.968,16.088-6.533,24.616-7.644
			c8.183-1.066,14.553,2.056,17.351,10.064c2.919,8.358-0.921,18.491-4.2,26.159c-6.633,15.515-16.729,29.143-26.308,42.906
			c-4.472,6.426-9.014,12.783-14.214,18.649c-4.261,4.806-11.831,13.513-19.176,11.667c0.498,1.224,0.996,2.448,1.494,3.672
			c5.854-10.162,17.018-10.05,26.755-5.792c10.093,4.414,16.766,12.943,21.561,22.607c10.157,20.47,10.066,44.708,23.367,63.852
			c1.289,1.854,3.782,1.474,4.569-0.597c8.536-22.438,11.269-46.457,12.842-70.258c1.483-22.444,2.466-44.884,4.282-67.309
			c3.341-41.273,8.059-87.654-10.042-126.359c-0.786-1.68-3.503-1.585-4.317,0c-16.078,31.309-23.877,65.683-30.97,99.915
			c-7.512,36.259-15.97,72.76-15.372,110.014c0.014,0.851,0.459,1.753,1.238,2.159c9.63,5.016,19.789,6.854,30.426,4.269
			c5.622-1.367,10.852-4.262,15.597-7.483c5.937-4.03,12.05-6.854,18.604-9.798c26.63-11.966,53.287-23.876,79.756-36.197
			c25.652-11.941,51.803-22.726,77.272-35.092c2.844-1.381,5.679-2.782,8.511-4.188c2.803-1.392,6.273-1.757,9.243-2.782
			c3.825-1.32,7.292-3.288,10.464-5.781c6.652-5.23,9.089-13.638,9.222-21.771c0.024-1.486-1.166-2.337-2.5-2.5
			c-60.255-7.372-121.089,0.959-179.672,15.438c-59.475,14.699-117.439,35.713-174.723,57.26
			c-30.209,11.363-60.025,23.785-89.346,37.276c-3.493,1.607-6.975,3.239-10.452,4.879c-2.821,1.331-6.489,1.454-9.511,2.263
			c-4.889,1.309-9.567,3.522-13.616,6.554c-7.621,5.706-11.277,14.288-12.514,23.498c-0.174,1.298,1.27,2.575,2.5,2.5
			c126.652-7.735,247.876-48.707,368.884-83.704c50.755-14.679,101.734-28.651,152.65-42.767
			c51.953-14.403,104.032-28.38,156.464-40.953c3.134-0.751,1.805-5.573-1.33-4.821c-63.947,15.334-127.359,32.775-190.683,50.487
			c-62.03,17.35-124.007,34.793-185.782,53.037c-98.094,28.969-197.597,57.455-300.204,63.721c0.833,0.833,1.667,1.667,2.5,2.5
			c1.439-10.712,7.23-18.769,17.032-23.325c5.169-2.403,11.089-2.284,16.133-4.672c7.533-3.568,15.112-7.039,22.716-10.453
			c29.609-13.293,59.756-25.373,90.235-36.52c57.411-20.999,115.126-41.678,174.795-55.376
			c53.597-12.304,109.1-18.528,163.923-11.821c-0.833-0.833-1.667-1.667-2.5-2.5c-0.143,8.724-3.371,15.84-10.987,20.41
			c-4.001,2.4-8.649,3.589-13.178,4.513c-2.421,0.494-5.161,2.521-7.383,3.614c-2.848,1.401-5.704,2.782-8.563,4.158
			c-23.788,11.452-48.211,21.451-72.125,32.604c-23.53,10.974-47.225,21.593-70.912,32.226c-5.89,2.644-11.779,5.289-17.667,7.938
			c-5.728,2.578-10.284,6.501-15.781,9.509c-11.269,6.167-23.806,5.354-34.977-0.463c0.413,0.72,0.826,1.439,1.238,2.159
			c-0.582-36.218,7.546-71.615,14.819-106.874c7.092-34.385,14.687-69.077,30.84-100.531c-1.439,0-2.878,0-4.317,0
			c8.845,18.912,11.332,40.086,11.986,60.74c0.683,21.56-1.01,43.139-2.749,64.612c-1.728,21.341-2.743,42.688-4.049,64.055
			c-1.464,23.947-4.189,48.101-12.774,70.667c1.523-0.198,3.046-0.397,4.569-0.597c-15.405-22.172-13.453-51.609-29.239-73.694
			c-10.982-15.363-38.969-27.994-51.078-6.973c-0.792,1.375-0.085,3.275,1.494,3.672c7.408,1.861,14.076-3.28,19.216-7.994
			c6.725-6.168,12.197-13.759,17.43-21.189c10.468-14.864,21.309-29.625,28.698-46.336c5.976-13.515,11.136-36.994-7.646-43.124
			c-7.691-2.51-16.727,0.405-24.025,2.871c-8.429,2.848-16.596,6.783-25.36,8.534c-1.646,0.329-3.309,0.414-4.982,0.328
			c0.804,0.612,1.607,1.224,2.411,1.835c-3.647-12.221,1.151-25.24-3.333-37.333c-0.799-2.155-4.227-2.603-4.821,0
			c-5.286,23.123-5.101,46.944-3.845,70.5c1.15,21.567,2.797,43.089,3.724,64.671c1.694,39.41,2.788,82.182,21.04,118.088
			c1.078,2.12,4.97,1.232,4.659-1.262c-9.831-78.788-27.062-158.83-2.089-236.668c-0.804,0.612-1.607,1.224-2.411,1.835
			c11.801,1.437,15.604,18.148,17.598,27.505c3.524,16.53,3.906,33.773,3.852,50.614c-0.044,13.906-0.749,27.794-1.594,41.67
			c-0.504,8.273-0.635,16.557-1.283,24.824c-1.223,15.602-3.869,31.062-7.531,46.269c-2.156,8.953-4.786,17.786-7.7,26.52
			c-1.521,4.559-2.252,7.4-6.301,10.135c-3.975,2.685-7.799,5.595-11.636,8.472c0.841,0,1.682,0,2.523,0
			c-36.536-27.954-52.993-73.206-73.031-112.934c-12.041-23.872-24.814-47.367-37.786-70.744
			c-3.015-5.435-5.343-10.633-7.507-16.429c-1.421-3.808-3.457-7.274-6.114-10.343c-5.044-5.826-12.799-7.518-20.157-6.56
			c-1.394,0.182-2.443,1.002-2.5,2.5c-0.908,23.741,4.714,48.022,16.73,68.575c11.156,19.083,27.915,31.065,49.477,35.573
			c19.557,4.089,42.205,2.14,58.77-9.828c8.794-6.353,14.763-15.409,13.678-26.548c-1.151-11.821-9.015-22.29-15.112-32.037
			c-14.523-23.215-30.399-46.679-38.822-72.95c-3.757-11.719-6.194-25.033-2.934-37.131c2.279-8.456,9.689-21.73,20.148-15.902
			c8.956,4.99,12.923,17.077,14.494,26.492c1.809,10.84,0.835,22.24-0.722,33.043c-2.992,20.774-9.272,40.979-15.882,60.843
			c-9.962,29.937-22.293,58.725-38.978,85.58c-8.824,14.203-18.858,27.634-30.054,40.054c-4.995,5.541-10.251,10.686-15.968,15.472
			c-5.254,4.4-10.779,8.603-15.428,13.663C101.056,354.936,104.582,358.48,106.768,356.102L106.768,356.102z"/>
	</g>
</g>
</svg>
